<svg width="42" height="52" viewBox="0 0 42 52" fill="none" xmlns="http://www.w3.org/2000/svg">
<path d="M8.87951 21.7571C8.87951 23.9455 8.50992 26.167 7.70355 28.0073C6.66874 30.3688 4.0338 30.4738 1.91894 30.6598C1.41506 30.7042 1.04724 30.8422 1.04164 30.8441C0.677653 30.9638 2.77198 30.5991 4.51166 30.8422C5.29716 30.952 5.75855 31.5717 6.1356 32.3693C6.98783 34.1721 7.0129 36.6042 7.0745 38.2639C7.10761 39.1562 8.49872 35.0348 9.74561 33.1227C11.0572 31.1114 12.9786 30.238 14.4737 29.4957C14.827 29.3202 15.2185 29.2507 14.8545 29.188C13.4023 28.9381 11.7466 28.7607 10.8152 28.0865C9.50295 26.9186 9.00643 25.4486 8.81791 23.6673C8.75631 23.2344 8.63311 22.8697 8.50618 21.3887" stroke="#A2F33F" stroke-width="2" stroke-linecap="round"/>
<path d="M34.6604 2.40096C34.8192 2.54573 33.8852 5.96874 31.7137 10.167C29.6839 14.0913 26.731 14.2251 25.323 14.8532C24.8847 15.0487 26.717 14.3885 27.7257 14.2321C28.2656 14.1483 28.8885 14.3838 29.2831 14.7714C30.9482 16.407 31.2327 18.7362 31.3145 22.1568C31.3693 24.4527 29.6823 26.208 29.0589 28.4658C28.9071 29.0158 28.7484 29.4769 28.8231 29.4839C30.5837 29.6489 31.5316 23.294 34.2612 19.6118C36.7622 16.2379 39.9467 15.9436 40.5725 15.7895C42.4597 15.3247 37.0047 13.9262 36.0637 12.2147C35.1139 10.4871 34.8192 8.48113 34.8145 4.67285C34.9686 3.80659 35.2769 3.34427 35.5127 2.87495C35.7485 2.40563 35.9026 1.94331 36.5284 1" stroke="#A2F33F" stroke-width="2" stroke-linecap="round"/>
<path d="M23.0344 35.562C22.0209 38.7713 21.2455 40.7623 20.6083 41.4009C19.2708 42.741 17.9211 42.6408 17.065 43.0669C16.1956 43.4997 18.3357 45.026 19.1086 47.1105C19.1956 47.9205 19.1956 49.0184 19.1533 49.7106C19.1111 50.4029 19.0267 50.6563 18.9397 50.4055" stroke="#A2F33F" stroke-width="2" stroke-linecap="round"/>
<path d="M23.2903 36.0742C22.7785 37.1798 22.6096 38.3724 22.4803 39.9911C22.3919 41.0991 22.4356 42.3801 22.8182 43.4883C23.244 44.7217 24.7363 44.6885 25.0805 44.9445C26.3936 45.9207 21.4272 46.8946 20.2641 48.3546C20.1348 48.6118 20.0504 48.8652 19.9224 49.1224C19.7944 49.3796 19.6255 49.6329 19.9634 49.894" stroke="#A2F33F" stroke-width="2" stroke-linecap="round"/>
</svg>
