<svg width="237" height="81" viewBox="0 0 237 81" fill="none" xmlns="http://www.w3.org/2000/svg">
<path d="M186.085 33.8355C186.085 37.1919 185.518 40.599 184.281 43.4214C182.694 47.0433 178.653 47.2043 175.409 47.4896C174.637 47.5576 174.072 47.7693 174.064 47.7722C173.506 47.9558 176.718 47.3964 179.386 47.7693C180.591 47.9377 181.298 48.8881 181.876 50.1114C183.183 52.8764 183.222 56.6065 183.316 59.152C183.367 60.5204 185.501 54.1994 187.413 51.2669C189.425 48.1821 192.371 46.8427 194.665 45.7041C195.206 45.4351 195.807 45.3284 195.249 45.2323C193.021 44.8491 190.482 44.5769 189.053 43.5429C187.041 41.7517 186.279 39.4972 185.99 36.7653C185.896 36.1013 185.707 35.542 185.512 33.2705" stroke="#A2F33F" stroke-width="3.06738" stroke-linecap="round"/>
<path d="M225.625 4.14864C225.868 4.37067 224.436 9.62052 221.105 16.0593C217.992 22.078 213.463 22.2832 211.304 23.2465C210.632 23.5464 213.442 22.5339 214.989 22.2939C215.817 22.1655 216.772 22.5267 217.377 23.1212C219.931 25.6296 220.368 29.2018 220.493 34.4481C220.577 37.9693 217.99 40.6613 217.034 44.1242C216.801 44.9677 216.557 45.6748 216.672 45.6855C219.372 45.9386 220.826 36.1921 225.012 30.5447C228.848 25.3702 233.732 24.9189 234.692 24.6825C237.586 23.9697 229.22 21.8248 227.777 19.1999C226.32 16.5503 225.868 13.4738 225.861 7.63303C226.097 6.30445 226.57 5.5954 226.932 4.8756C227.293 4.15581 227.53 3.44675 228.49 2" stroke="#A2F33F" stroke-width="3.06738" stroke-linecap="round"/>
<path d="M207.794 55.0078C206.24 59.9298 205.051 62.9835 204.073 63.9628C202.022 66.0182 199.952 65.8645 198.639 66.518C197.305 67.1818 200.588 69.5226 201.773 72.7196C201.907 73.9619 201.907 75.6457 201.842 76.7074C201.777 77.7692 201.647 78.1577 201.514 77.7731" stroke="#A2F33F" stroke-width="3.06738" stroke-linecap="round"/>
<path d="M208.187 55.793C207.402 57.4886 207.143 59.3177 206.944 61.8003C206.809 63.4996 206.876 65.4643 207.462 67.1638C208.116 69.0555 210.404 69.0047 210.932 69.3972C212.946 70.8945 205.329 72.3881 203.545 74.6273C203.347 75.0218 203.217 75.4104 203.021 75.8048C202.825 76.1993 202.566 76.5879 203.084 76.9882" stroke="#A2F33F" stroke-width="3.06738" stroke-linecap="round"/>
<path d="M2 79.0497C6.00165 79.3561 13.1136 79.9782 31.9984 79.5186C48.1275 79.1261 77.5392 78.1398 105.713 77.3599C133.887 76.58 159.93 75.9672 175.338 75.8048C190.746 75.6423 194.729 75.9487 199.761 76.2643" stroke="#A2F33F" stroke-width="4" stroke-linecap="round"/>
<path d="M21 72.3549C24.0959 72.6673 29.5982 73.3017 44.2086 72.833C56.687 72.4327 79.4417 71.427 101.239 70.6317C123.036 69.8364 143.185 69.2116 155.105 69.0459C167.025 68.8802 170.107 69.1926 174 69.5145" stroke="#A2F33F" stroke-width="4" stroke-linecap="round"/>
</svg>
